# xmcd
# 
# Track frame offsets:
#     150
#     12397
#     28010
#     42103
#     58424
#     76740
#     97491
#     113461
#     127600
#     149936
#     174010
#     190204
#     205224
#     220068
#     237132
#     259024
#     276937
#     294304
# 
# Disc length: 4211
# 
# Revision: 1
# Processed by: cddbd v1.5.2PL0 Copyright (c) Steve Scherf et al.
# Submitted via: fre:ac v1.0.17
# 
DISCID=02107112
DTITLE=Various Artist - Nu Rare Groove (Blaxploitation Masterpieces) CD1
DYEAR=2009
DGENRE=Funk
TTITLE0=The Rooster
TTITLE1=Gotta Let Me Know
TTITLE2=Take A Chance
TTITLE3=Indecision
TTITLE4=Settle The Score
TTITLE5=Fired Up
TTITLE6=Say What You Feel
TTITLE7=The Duck
TTITLE8=Spread It On
TTITLE9=Don't Wanna Change [Nostalgia 77 Remix]
TTITLE10=Black Street Lust
TTITLE11=The 1-2-3s
TTITLE12=Tired Feet
TTITLE13=The Outsider
TTITLE14=Get Up [Diesler Remix]
TTITLE15=Rocksteady
TTITLE16=Up In The Party
TTITLE17=I Love Myself
EXTD=
EXTT0=
EXTT1=
EXTT2=
EXTT3=
EXTT4=
EXTT5=
EXTT6=
EXTT7=
EXTT8=
EXTT9=
EXTT10=
EXTT11=
EXTT12=
EXTT13=
EXTT14=
EXTT15=
EXTT16=
EXTT17=
PLAYORDER=
